<svg width="68" height="45" viewBox="0 0 68 45" fill="none" xmlns="http://www.w3.org/2000/svg">
<path fill-rule="evenodd" clip-rule="evenodd" d="M1.7745 1.46594C12.7457 26.9261 39.9696 33.4262 65.5739 29.7021C66.0138 29.639 66.4239 29.9439 66.4871 30.3837C66.5502 30.8236 66.2454 31.2337 65.8055 31.2968C39.4843 35.1267 11.5728 28.2761 0.294677 2.10241C0.118152 1.69501 0.307004 1.22129 0.716371 1.04423C1.12377 0.867707 1.59745 1.05657 1.7745 1.46594Z" fill="white"/>
<path fill-rule="evenodd" clip-rule="evenodd" d="M65.2086 30.57C63.8885 30.0585 62.2246 29.4349 62.0379 29.3586C56.9771 27.2918 52.5081 24.5506 48.285 21.0615C47.9419 20.7787 47.8939 20.2695 48.1767 19.9264C48.4595 19.5833 48.9686 19.5353 49.3117 19.8181C53.4058 23.2028 57.7392 25.8624 62.6485 27.8667C62.9346 27.9837 66.6757 29.3832 67.4109 29.723C67.7131 29.861 67.8413 30.0329 67.8676 30.0764C68.0164 30.3018 68.0194 30.5094 67.9906 30.6687C67.9566 30.8483 67.8282 31.1311 67.4906 31.3479C67.1363 31.5733 66.2907 31.8589 66.0831 31.9482C62.9541 33.3044 59.3438 34.5455 56.2434 36.3698C53.2866 38.1094 50.7907 40.3822 49.7363 43.8793C49.6083 44.3051 49.1571 44.546 48.7312 44.418C48.3054 44.29 48.0645 43.8388 48.1924 43.413C49.3721 39.5035 52.121 36.925 55.425 34.9808C58.5073 33.1676 62.0779 31.9119 65.2086 30.57Z" fill="white"/>
</svg>
