<svg width="82" height="22" viewBox="0 0 82 22" fill="none" xmlns="http://www.w3.org/2000/svg">
<path d="M1.49516 4.65882H0V0.141176H1.5614C2.03139 0.141176 2.43357 0.231618 2.76793 0.4125C3.10229 0.591912 3.35858 0.85 3.5368 1.18676C3.71502 1.52206 3.80413 1.92353 3.80413 2.39118C3.80413 2.86176 3.71423 3.26691 3.53444 3.60662C3.35464 3.94485 3.09283 4.20515 2.74901 4.3875C2.40518 4.56838 1.98723 4.65882 1.49516 4.65882ZM0.586707 4.17353H1.4573C1.85791 4.17353 2.1899 4.10147 2.45329 3.95735C2.71667 3.81324 2.91303 3.60809 3.04236 3.34191C3.17169 3.07574 3.23635 2.75882 3.23635 2.39118C3.23635 2.02647 3.17248 1.7125 3.04473 1.44926C2.91698 1.18456 2.72614 0.981618 2.47221 0.840441C2.21829 0.697794 1.90207 0.62647 1.52355 0.62647H0.586707V4.17353Z" fill="white"/>
<path d="M6.23613 4.72941C5.886 4.72941 5.58397 4.65735 5.33004 4.51324C5.0777 4.36765 4.88292 4.16471 4.7457 3.90441C4.61007 3.64265 4.54225 3.33824 4.54225 2.99118C4.54225 2.64412 4.61007 2.33824 4.7457 2.07353C4.88292 1.80735 5.07375 1.6 5.31822 1.45147C5.56425 1.30147 5.8513 1.22647 6.17935 1.22647C6.36861 1.22647 6.55551 1.25588 6.74003 1.31471C6.92456 1.37353 7.09253 1.46912 7.24394 1.60147C7.39535 1.73235 7.516 1.90588 7.6059 2.12206C7.6958 2.33824 7.74075 2.60441 7.74075 2.92059V3.14118H4.93969V2.69118H7.17297C7.17297 2.5 7.13196 2.32941 7.04995 2.17941C6.96951 2.02941 6.85438 1.91103 6.70455 1.82426C6.55629 1.7375 6.38123 1.69412 6.17935 1.69412C5.95697 1.69412 5.76455 1.74559 5.60211 1.84853C5.44123 1.95 5.31743 2.08235 5.23068 2.24559C5.14394 2.40882 5.10057 2.58382 5.10057 2.77059V3.07059C5.10057 3.32647 5.14788 3.54338 5.24251 3.72132C5.33872 3.89779 5.47199 4.03235 5.64232 4.125C5.81266 4.21618 6.01059 4.26177 6.23613 4.26177C6.38281 4.26177 6.51529 4.24265 6.63358 4.20441C6.75344 4.16471 6.85674 4.10588 6.94349 4.02794C7.03023 3.94853 7.09726 3.85 7.14458 3.73235L7.68397 3.87353C7.62719 4.04412 7.53177 4.19412 7.39771 4.32353C7.26365 4.45147 7.09805 4.55147 6.90091 4.62353C6.70376 4.69412 6.48217 4.72941 6.23613 4.72941Z" fill="white"/>
<path d="M11.164 2.02941L10.6625 2.16176C10.6309 2.08382 10.5844 2.00809 10.5229 1.93456C10.4629 1.85956 10.3809 1.79779 10.2768 1.74926C10.1727 1.70074 10.0395 1.67647 9.87702 1.67647C9.65464 1.67647 9.46933 1.72426 9.32107 1.81985C9.17439 1.91397 9.10106 2.03382 9.10106 2.17941C9.10106 2.30882 9.15153 2.41103 9.25247 2.48603C9.3534 2.56103 9.51112 2.62353 9.72562 2.67353L10.265 2.79706C10.5899 2.87059 10.832 2.98309 10.9913 3.13456C11.1506 3.28456 11.2302 3.47794 11.2302 3.71471C11.2302 3.90882 11.1703 4.08235 11.0504 4.23529C10.9322 4.38824 10.7665 4.50882 10.5536 4.59706C10.3407 4.68529 10.0931 4.72941 9.81078 4.72941C9.44015 4.72941 9.13339 4.65441 8.8905 4.50441C8.64762 4.35441 8.49385 4.13529 8.42918 3.84706L8.95911 3.72353C9.00958 3.90588 9.105 4.04265 9.24537 4.13382C9.38731 4.225 9.57263 4.27059 9.80132 4.27059C10.0616 4.27059 10.2682 4.21912 10.4211 4.11618C10.5757 4.01176 10.653 3.88676 10.653 3.74118C10.653 3.62353 10.6088 3.525 10.5205 3.44559C10.4322 3.36471 10.2966 3.30441 10.1136 3.26471L9.50797 3.13235C9.17518 3.05882 8.93072 2.94485 8.77458 2.79044C8.62002 2.63456 8.54274 2.43971 8.54274 2.20588C8.54274 2.01471 8.60031 1.84559 8.71544 1.69853C8.83215 1.55147 8.99065 1.43603 9.19096 1.35221C9.39283 1.26838 9.62152 1.22647 9.87702 1.22647C10.2366 1.22647 10.5189 1.3 10.724 1.44706C10.9306 1.59412 11.0773 1.78824 11.164 2.02941Z" fill="white"/>
<path d="M12.0707 4.65882V1.27059H12.629V4.65882H12.0707ZM12.3546 0.705882C12.2457 0.705882 12.1519 0.671324 12.073 0.602206C11.9958 0.533088 11.9571 0.45 11.9571 0.352941C11.9571 0.255882 11.9958 0.172794 12.073 0.103676C12.1519 0.0345588 12.2457 0 12.3546 0C12.4634 0 12.5564 0.0345588 12.6337 0.103676C12.7126 0.172794 12.752 0.255882 12.752 0.352941C12.752 0.45 12.7126 0.533088 12.6337 0.602206C12.5564 0.671324 12.4634 0.705882 12.3546 0.705882Z" fill="white"/>
<path d="M15.1184 6C14.8487 6 14.6168 5.96765 14.4228 5.90294C14.2288 5.83971 14.0672 5.75588 13.9378 5.65147C13.8101 5.54853 13.7084 5.43824 13.6327 5.32059L14.0774 5.02941C14.1279 5.09118 14.1918 5.16177 14.269 5.24118C14.3463 5.32206 14.452 5.39191 14.5861 5.45074C14.7217 5.51103 14.8991 5.54118 15.1184 5.54118C15.4117 5.54118 15.6538 5.475 15.8446 5.34265C16.0355 5.21029 16.1309 5.00294 16.1309 4.72059V4.03235H16.0836C16.0426 4.09412 15.9842 4.17059 15.9085 4.26177C15.8344 4.35147 15.7271 4.43162 15.5868 4.50221C15.448 4.57132 15.2603 4.60588 15.0237 4.60588C14.7304 4.60588 14.467 4.54118 14.2336 4.41176C14.0017 4.28235 13.818 4.09412 13.6823 3.84706C13.5483 3.6 13.4813 3.3 13.4813 2.94706C13.4813 2.6 13.5467 2.29779 13.6776 2.04044C13.8085 1.78162 13.9907 1.58162 14.2241 1.44044C14.4575 1.29779 14.7272 1.22647 15.0332 1.22647C15.2698 1.22647 15.4574 1.26324 15.5962 1.33676C15.7366 1.40882 15.8439 1.49118 15.918 1.58382C15.9937 1.675 16.052 1.75 16.093 1.80882H16.1498V1.27059H16.6892V4.75588C16.6892 5.04706 16.6182 5.28382 16.4763 5.46618C16.3359 5.65 16.1467 5.78456 15.9085 5.86985C15.6719 5.95662 15.4086 6 15.1184 6ZM15.0994 4.13824C15.3234 4.13824 15.5126 4.09044 15.6672 3.99485C15.8218 3.89926 15.9393 3.76176 16.0197 3.58235C16.1001 3.40294 16.1404 3.18824 16.1404 2.93824C16.1404 2.69412 16.1009 2.47868 16.0221 2.29191C15.9432 2.10515 15.8265 1.95882 15.6719 1.85294C15.5174 1.74706 15.3265 1.69412 15.0994 1.69412C14.8629 1.69412 14.6657 1.75 14.508 1.86176C14.3518 1.97353 14.2343 2.12353 14.1555 2.31176C14.0782 2.5 14.0396 2.70882 14.0396 2.93824C14.0396 3.17353 14.079 3.38162 14.1579 3.5625C14.2383 3.74191 14.3566 3.88309 14.5127 3.98603C14.6704 4.0875 14.866 4.13824 15.0994 4.13824Z" fill="white"/>
<path d="M18.2695 2.62059V4.65882H17.7112V1.27059H18.2506V1.8H18.2979C18.3831 1.62794 18.5124 1.48971 18.6859 1.38529C18.8594 1.27941 19.0834 1.22647 19.3578 1.22647C19.6038 1.22647 19.8191 1.27353 20.0036 1.36765C20.1882 1.46029 20.3317 1.60147 20.4342 1.79118C20.5367 1.97941 20.588 2.21765 20.588 2.50588V4.65882H20.0297V2.54118C20.0297 2.275 19.9555 2.06765 19.8073 1.91912C19.659 1.76912 19.4556 1.69412 19.1969 1.69412C19.0187 1.69412 18.8594 1.73015 18.719 1.80221C18.5802 1.87426 18.4706 1.97941 18.3902 2.11765C18.3098 2.25588 18.2695 2.42353 18.2695 2.62059Z" fill="white"/>
<path d="M23.1318 4.72941C22.7816 4.72941 22.4796 4.65735 22.2257 4.51324C21.9733 4.36765 21.7785 4.16471 21.6413 3.90441C21.5057 3.64265 21.4379 3.33824 21.4379 2.99118C21.4379 2.64412 21.5057 2.33824 21.6413 2.07353C21.7785 1.80735 21.9694 1.6 22.2138 1.45147C22.4599 1.30147 22.7469 1.22647 23.075 1.22647C23.2642 1.22647 23.4511 1.25588 23.6357 1.31471C23.8202 1.37353 23.9882 1.46912 24.1396 1.60147C24.291 1.73235 24.4116 1.90588 24.5015 2.12206C24.5914 2.33824 24.6364 2.60441 24.6364 2.92059V3.14118H21.8353V2.69118H24.0686C24.0686 2.5 24.0276 2.32941 23.9456 2.17941C23.8651 2.02941 23.75 1.91103 23.6002 1.82426C23.4519 1.7375 23.2769 1.69412 23.075 1.69412C22.8526 1.69412 22.6602 1.74559 22.4977 1.84853C22.3369 1.95 22.2131 2.08235 22.1263 2.24559C22.0396 2.40882 21.9962 2.58382 21.9962 2.77059V3.07059C21.9962 3.32647 22.0435 3.54338 22.1381 3.72132C22.2343 3.89779 22.3676 4.03235 22.538 4.125C22.7083 4.21618 22.9062 4.26177 23.1318 4.26177C23.2784 4.26177 23.4109 4.24265 23.5292 4.20441C23.6491 4.16471 23.7524 4.10588 23.8391 4.02794C23.9259 3.94853 23.9929 3.85 24.0402 3.73235L24.5796 3.87353C24.5228 4.04412 24.4274 4.19412 24.2933 4.32353C24.1593 4.45147 23.9937 4.55147 23.7965 4.62353C23.5994 4.69412 23.3778 4.72941 23.1318 4.72941Z" fill="white"/>
<path d="M26.8578 4.72941C26.555 4.72941 26.2877 4.65809 26.0558 4.51544C25.824 4.37132 25.6426 4.16838 25.5117 3.90662C25.3808 3.64338 25.3153 3.33235 25.3153 2.97353C25.3153 2.61765 25.3808 2.30882 25.5117 2.04706C25.6426 1.78529 25.8248 1.58309 26.0582 1.44044C26.2916 1.29779 26.5613 1.22647 26.8673 1.22647C27.1039 1.22647 27.2908 1.26324 27.428 1.33676C27.5668 1.40882 27.6724 1.49118 27.745 1.58382C27.8191 1.675 27.8767 1.75 27.9177 1.80882H27.965V0.141176H28.5233V4.65882H27.9839V4.13824H27.9177C27.8767 4.2 27.8183 4.27794 27.7426 4.37206C27.6669 4.46471 27.5589 4.54779 27.4185 4.62132C27.2781 4.69338 27.0912 4.72941 26.8578 4.72941ZM26.9335 4.26177C27.1575 4.26177 27.3467 4.20735 27.5013 4.09853C27.6559 3.98824 27.7734 3.83603 27.8538 3.64191C27.9342 3.44632 27.9745 3.22059 27.9745 2.96471C27.9745 2.71176 27.935 2.49044 27.8562 2.30074C27.7773 2.10956 27.6606 1.96103 27.506 1.85515C27.3515 1.74779 27.1606 1.69412 26.9335 1.69412C26.6969 1.69412 26.4998 1.75074 26.3421 1.86397C26.1859 1.97574 26.0684 2.12794 25.9896 2.32059C25.9123 2.51176 25.8737 2.72647 25.8737 2.96471C25.8737 3.20588 25.9131 3.425 25.992 3.62206C26.0724 3.81765 26.1907 3.97353 26.3468 4.08971C26.5045 4.20441 26.7001 4.26177 26.9335 4.26177Z" fill="white"/>
<path d="M32.8692 4.72059C32.5506 4.72059 32.2762 4.66618 32.0459 4.55735C31.8156 4.44853 31.6382 4.29926 31.5136 4.10956C31.389 3.91985 31.3267 3.70294 31.3267 3.45882C31.3267 3.27059 31.3693 3.10368 31.4545 2.95809C31.5412 2.81103 31.6603 2.675 31.8117 2.55C31.9647 2.42353 32.1405 2.29706 32.3393 2.17059L33.0395 1.68529C33.1767 1.60147 33.2864 1.51176 33.3684 1.41618C33.452 1.32059 33.4938 1.19559 33.4938 1.04118C33.4938 0.926471 33.4393 0.815441 33.3305 0.708088C33.2233 0.600735 33.0821 0.547059 32.9071 0.547059C32.784 0.547059 32.6752 0.576471 32.5806 0.635294C32.4875 0.692647 32.4142 0.766176 32.3606 0.855882C32.3085 0.944118 32.2825 1.03529 32.2825 1.12941C32.2825 1.23529 32.3132 1.34265 32.3748 1.45147C32.4378 1.55882 32.5175 1.66912 32.6137 1.78235C32.7115 1.89412 32.8124 2.00882 32.9165 2.12647L35.1403 4.65882H34.4684L32.6326 2.59412C32.4623 2.40294 32.3077 2.22941 32.1689 2.07353C32.0301 1.91765 31.9197 1.76397 31.8377 1.6125C31.7557 1.46103 31.7147 1.29706 31.7147 1.12059C31.7147 0.917647 31.7628 0.739706 31.859 0.586765C31.9568 0.432353 32.0932 0.3125 32.2683 0.227206C32.4449 0.140441 32.6516 0.0970588 32.8881 0.0970588C33.131 0.0970588 33.34 0.141176 33.5151 0.229412C33.6901 0.316176 33.825 0.431618 33.9196 0.575735C34.0142 0.718382 34.0615 0.873529 34.0615 1.04118C34.0615 1.25735 34.004 1.44485 33.8888 1.60368C33.7737 1.7625 33.6168 1.91029 33.4181 2.04706L32.4528 2.71765C32.2352 2.86765 32.0877 3.01324 32.0104 3.15441C31.9331 3.29559 31.8945 3.39706 31.8945 3.45882C31.8945 3.6 31.9339 3.73162 32.0128 3.85368C32.0917 3.97574 32.2028 4.07426 32.3464 4.14926C32.4899 4.22426 32.6579 4.26177 32.8503 4.26177C33.0332 4.26177 33.2114 4.22574 33.3849 4.15368C33.5584 4.08015 33.7154 3.97426 33.8557 3.83603C33.9977 3.69779 34.1096 3.53162 34.1917 3.3375C34.2752 3.14338 34.317 2.925 34.317 2.68235H34.8564C34.8564 2.98235 34.8194 3.22721 34.7452 3.41691C34.6711 3.60662 34.5875 3.75515 34.4945 3.8625C34.4014 3.96985 34.3265 4.05 34.2697 4.10294C34.2508 4.125 34.2335 4.14706 34.2177 4.16912C34.2019 4.19118 34.1846 4.21324 34.1656 4.23529C34.0095 4.39853 33.8123 4.52059 33.5742 4.60147C33.336 4.68088 33.101 4.72059 32.8692 4.72059Z" fill="white"/>
<path d="M41.0766 4.65882H39.5814V0.141176H41.1428C41.6128 0.141176 42.015 0.231618 42.3494 0.4125C42.6837 0.591912 42.94 0.85 43.1182 1.18676C43.2965 1.52206 43.3856 1.92353 43.3856 2.39118C43.3856 2.86176 43.2957 3.26691 43.1159 3.60662C42.9361 3.94485 42.6743 4.20515 42.3304 4.3875C41.9866 4.56838 41.5687 4.65882 41.0766 4.65882ZM40.1681 4.17353H41.0387C41.4393 4.17353 41.7713 4.10147 42.0347 3.95735C42.2981 3.81324 42.4945 3.60809 42.6238 3.34191C42.7531 3.07574 42.8178 2.75882 42.8178 2.39118C42.8178 2.02647 42.7539 1.7125 42.6262 1.44926C42.4984 1.18456 42.3076 0.981618 42.0536 0.840441C41.7997 0.697794 41.4835 0.62647 41.105 0.62647H40.1681V4.17353Z" fill="white"/>
<path d="M45.8176 4.72941C45.4674 4.72941 45.1654 4.65735 44.9115 4.51324C44.6591 4.36765 44.4644 4.16471 44.3271 3.90441C44.1915 3.64265 44.1237 3.33824 44.1237 2.99118C44.1237 2.64412 44.1915 2.33824 44.3271 2.07353C44.4644 1.80735 44.6552 1.6 44.8997 1.45147C45.1457 1.30147 45.4327 1.22647 45.7608 1.22647C45.95 1.22647 46.1369 1.25588 46.3215 1.31471C46.506 1.37353 46.674 1.46912 46.8254 1.60147C46.9768 1.73235 47.0974 1.90588 47.1873 2.12206C47.2772 2.33824 47.3222 2.60441 47.3222 2.92059V3.14118H44.5211V2.69118H46.7544C46.7544 2.5 46.7134 2.32941 46.6314 2.17941C46.5509 2.02941 46.4358 1.91103 46.286 1.82426C46.1377 1.7375 45.9627 1.69412 45.7608 1.69412C45.5384 1.69412 45.346 1.74559 45.1835 1.84853C45.0227 1.95 44.8989 2.08235 44.8121 2.24559C44.7254 2.40882 44.682 2.58382 44.682 2.77059V3.07059C44.682 3.32647 44.7293 3.54338 44.8239 3.72132C44.9202 3.89779 45.0534 4.03235 45.2238 4.125C45.3941 4.21618 45.592 4.26177 45.8176 4.26177C45.9642 4.26177 46.0967 4.24265 46.215 4.20441C46.3349 4.16471 46.4382 4.10588 46.5249 4.02794C46.6117 3.94853 46.6787 3.85 46.726 3.73235L47.2654 3.87353C47.2086 4.04412 47.1132 4.19412 46.9792 4.32353C46.8451 4.45147 46.6795 4.55147 46.4823 4.62353C46.2852 4.69412 46.0636 4.72941 45.8176 4.72941Z" fill="white"/>
<path d="M51.0323 1.27059L49.6885 4.65882H49.1207L47.777 1.27059H48.3826L49.3857 3.97059H49.4236L50.4266 1.27059H51.0323Z" fill="white"/>
<path d="M53.1626 4.72941C52.8125 4.72941 52.5105 4.65735 52.2566 4.51324C52.0042 4.36765 51.8094 4.16471 51.6722 3.90441C51.5366 3.64265 51.4688 3.33824 51.4688 2.99118C51.4688 2.64412 51.5366 2.33824 51.6722 2.07353C51.8094 1.80735 52.0003 1.6 52.2447 1.45147C52.4908 1.30147 52.7778 1.22647 53.1059 1.22647C53.2951 1.22647 53.482 1.25588 53.6665 1.31471C53.8511 1.37353 54.019 1.46912 54.1705 1.60147C54.3219 1.73235 54.4425 1.90588 54.5324 2.12206C54.6223 2.33824 54.6673 2.60441 54.6673 2.92059V3.14118H51.8662V2.69118H54.0995C54.0995 2.5 54.0585 2.32941 53.9765 2.17941C53.896 2.02941 53.7809 1.91103 53.6311 1.82426C53.4828 1.7375 53.3077 1.69412 53.1059 1.69412C52.8835 1.69412 52.6911 1.74559 52.5286 1.84853C52.3677 1.95 52.2439 2.08235 52.1572 2.24559C52.0704 2.40882 52.0271 2.58382 52.0271 2.77059V3.07059C52.0271 3.32647 52.0744 3.54338 52.169 3.72132C52.2652 3.89779 52.3985 4.03235 52.5688 4.125C52.7392 4.21618 52.9371 4.26177 53.1626 4.26177C53.3093 4.26177 53.4418 4.24265 53.5601 4.20441C53.6799 4.16471 53.7833 4.10588 53.87 4.02794C53.9567 3.94853 54.0238 3.85 54.0711 3.73235L54.6105 3.87353C54.5537 4.04412 54.4583 4.19412 54.3242 4.32353C54.1902 4.45147 54.0246 4.55147 53.8274 4.62353C53.6303 4.69412 53.4087 4.72941 53.1626 4.72941Z" fill="white"/>
<path d="M56.0749 0.141176V4.65882H55.5166V0.141176H56.0749Z" fill="white"/>
<path d="M58.5737 4.72941C58.2457 4.72941 57.9578 4.65662 57.7102 4.51103C57.4642 4.36544 57.2718 4.16176 57.133 3.9C56.9958 3.63824 56.9271 3.33235 56.9271 2.98235C56.9271 2.62941 56.9958 2.32132 57.133 2.05809C57.2718 1.79485 57.4642 1.59044 57.7102 1.44485C57.9578 1.29926 58.2457 1.22647 58.5737 1.22647C58.9018 1.22647 59.1888 1.29926 59.4348 1.44485C59.6825 1.59044 59.8749 1.79485 60.0121 2.05809C60.1509 2.32132 60.2203 2.62941 60.2203 2.98235C60.2203 3.33235 60.1509 3.63824 60.0121 3.9C59.8749 4.16176 59.6825 4.36544 59.4348 4.51103C59.1888 4.65662 58.9018 4.72941 58.5737 4.72941ZM58.5737 4.26177C58.8229 4.26177 59.0279 4.20221 59.1888 4.08309C59.3497 3.96397 59.4688 3.80735 59.546 3.61324C59.6233 3.41912 59.662 3.20882 59.662 2.98235C59.662 2.75588 59.6233 2.54485 59.546 2.34926C59.4688 2.15368 59.3497 1.99559 59.1888 1.875C59.0279 1.75441 58.8229 1.69412 58.5737 1.69412C58.3245 1.69412 58.1195 1.75441 57.9586 1.875C57.7977 1.99559 57.6787 2.15368 57.6014 2.34926C57.5241 2.54485 57.4855 2.75588 57.4855 2.98235C57.4855 3.20882 57.5241 3.41912 57.6014 3.61324C57.6787 3.80735 57.7977 3.96397 57.9586 4.08309C58.1195 4.20221 58.3245 4.26177 58.5737 4.26177Z" fill="white"/>
<path d="M61.0725 5.92941V1.27059H61.6119V1.80882H61.6782C61.7192 1.75 61.776 1.675 61.8485 1.58382C61.9226 1.49118 62.0283 1.40882 62.1655 1.33676C62.3043 1.26324 62.492 1.22647 62.7286 1.22647C63.0345 1.22647 63.3042 1.29779 63.5377 1.44044C63.7711 1.58309 63.9532 1.78529 64.0841 2.04706C64.215 2.30882 64.2805 2.61765 64.2805 2.97353C64.2805 3.33235 64.215 3.64338 64.0841 3.90662C63.9532 4.16838 63.7719 4.37132 63.54 4.51544C63.3082 4.65809 63.0408 4.72941 62.738 4.72941C62.5046 4.72941 62.3177 4.69338 62.1773 4.62132C62.037 4.54779 61.9289 4.46471 61.8532 4.37206C61.7775 4.27794 61.7192 4.2 61.6782 4.13824H61.6309V5.92941H61.0725ZM61.6214 2.96471C61.6214 3.22059 61.6616 3.44632 61.742 3.64191C61.8225 3.83603 61.94 3.98824 62.0945 4.09853C62.2491 4.20735 62.4384 4.26177 62.6623 4.26177C62.8957 4.26177 63.0905 4.20441 63.2467 4.08971C63.4044 3.97353 63.5227 3.81765 63.6015 3.62206C63.682 3.425 63.7222 3.20588 63.7222 2.96471C63.7222 2.72647 63.6828 2.51176 63.6039 2.32059C63.5266 2.12794 63.4091 1.97574 63.2514 1.86397C63.0953 1.75074 62.8989 1.69412 62.6623 1.69412C62.4352 1.69412 62.2444 1.74779 62.0898 1.85515C61.9353 1.96103 61.8185 2.10956 61.7397 2.30074C61.6608 2.49044 61.6214 2.71176 61.6214 2.96471Z" fill="white"/>
<path d="M66.6557 4.72941C66.3056 4.72941 66.0036 4.65735 65.7496 4.51324C65.4973 4.36765 65.3025 4.16471 65.1653 3.90441C65.0297 3.64265 64.9618 3.33824 64.9618 2.99118C64.9618 2.64412 65.0297 2.33824 65.1653 2.07353C65.3025 1.80735 65.4933 1.6 65.7378 1.45147C65.9838 1.30147 66.2709 1.22647 66.5989 1.22647C66.7882 1.22647 66.9751 1.25588 67.1596 1.31471C67.3442 1.37353 67.5121 1.46912 67.6635 1.60147C67.8149 1.73235 67.9356 1.90588 68.0255 2.12206C68.1154 2.33824 68.1603 2.60441 68.1603 2.92059V3.14118H65.3593V2.69118H67.5926C67.5926 2.5 67.5515 2.32941 67.4695 2.17941C67.3891 2.02941 67.274 1.91103 67.1241 1.82426C66.9759 1.7375 66.8008 1.69412 66.5989 1.69412C66.3766 1.69412 66.1841 1.74559 66.0217 1.84853C65.8608 1.95 65.737 2.08235 65.6503 2.24559C65.5635 2.40882 65.5202 2.58382 65.5202 2.77059V3.07059C65.5202 3.32647 65.5675 3.54338 65.6621 3.72132C65.7583 3.89779 65.8916 4.03235 66.0619 4.125C66.2322 4.21618 66.4302 4.26177 66.6557 4.26177C66.8024 4.26177 66.9349 4.24265 67.0532 4.20441C67.173 4.16471 67.2763 4.10588 67.3631 4.02794C67.4498 3.94853 67.5169 3.85 67.5642 3.73235L68.1036 3.87353C68.0468 4.04412 67.9514 4.19412 67.8173 4.32353C67.6832 4.45147 67.5176 4.55147 67.3205 4.62353C67.1233 4.69412 66.9018 4.72941 66.6557 4.72941Z" fill="white"/>
<path d="M70.3818 4.72941C70.079 4.72941 69.8116 4.65809 69.5798 4.51544C69.3479 4.37132 69.1666 4.16838 69.0357 3.90662C68.9048 3.64338 68.8393 3.33235 68.8393 2.97353C68.8393 2.61765 68.9048 2.30882 69.0357 2.04706C69.1666 1.78529 69.3487 1.58309 69.5822 1.44044C69.8156 1.29779 70.0853 1.22647 70.3912 1.22647C70.6278 1.22647 70.8147 1.26324 70.9519 1.33676C71.0907 1.40882 71.1964 1.49118 71.2689 1.58382C71.3431 1.675 71.4006 1.75 71.4416 1.80882H71.489V0.141176H72.0473V4.65882H71.5079V4.13824H71.4416C71.4006 4.2 71.3423 4.27794 71.2666 4.37206C71.1909 4.46471 71.0828 4.54779 70.9425 4.62132C70.8021 4.69338 70.6152 4.72941 70.3818 4.72941ZM70.4575 4.26177C70.6814 4.26177 70.8707 4.20735 71.0253 4.09853C71.1798 3.98824 71.2973 3.83603 71.3778 3.64191C71.4582 3.44632 71.4984 3.22059 71.4984 2.96471C71.4984 2.71176 71.459 2.49044 71.3801 2.30074C71.3013 2.10956 71.1846 1.96103 71.03 1.85515C70.8754 1.74779 70.6846 1.69412 70.4575 1.69412C70.2209 1.69412 70.0238 1.75074 69.866 1.86397C69.7099 1.97574 69.5924 2.12794 69.5136 2.32059C69.4363 2.51176 69.3976 2.72647 69.3976 2.96471C69.3976 3.20588 69.4371 3.425 69.5159 3.62206C69.5964 3.81765 69.7146 3.97353 69.8708 4.08971C70.0285 4.20441 70.2241 4.26177 70.4575 4.26177Z" fill="white"/>
<path d="M75.0967 4.65882V0.141176H75.655V1.80882H75.7024C75.7434 1.75 75.8001 1.675 75.8727 1.58382C75.9468 1.49118 76.0525 1.40882 76.1897 1.33676C76.3285 1.26324 76.5162 1.22647 76.7528 1.22647C77.0587 1.22647 77.3284 1.29779 77.5618 1.44044C77.7953 1.58309 77.9774 1.78529 78.1083 2.04706C78.2392 2.30882 78.3047 2.61765 78.3047 2.97353C78.3047 3.33235 78.2392 3.64338 78.1083 3.90662C77.9774 4.16838 77.7961 4.37132 77.5642 4.51544C77.3324 4.65809 77.065 4.72941 76.7622 4.72941C76.5288 4.72941 76.3419 4.69338 76.2015 4.62132C76.0612 4.54779 75.9531 4.46471 75.8774 4.37206C75.8017 4.27794 75.7434 4.2 75.7024 4.13824H75.6361V4.65882H75.0967ZM75.6456 2.96471C75.6456 3.22059 75.6858 3.44632 75.7662 3.64191C75.8467 3.83603 75.9642 3.98824 76.1187 4.09853C76.2733 4.20735 76.4626 4.26177 76.6865 4.26177C76.9199 4.26177 77.1147 4.20441 77.2709 4.08971C77.4286 3.97353 77.5469 3.81765 77.6257 3.62206C77.7062 3.425 77.7464 3.20588 77.7464 2.96471C77.7464 2.72647 77.7069 2.51176 77.6281 2.32059C77.5508 2.12794 77.4333 1.97574 77.2756 1.86397C77.1194 1.75074 76.9231 1.69412 76.6865 1.69412C76.4594 1.69412 76.2686 1.74779 76.114 1.85515C75.9594 1.96103 75.8427 2.10956 75.7639 2.30074C75.685 2.49044 75.6456 2.71176 75.6456 2.96471Z" fill="white"/>
<path d="M79.3882 5.92941C79.2936 5.92941 79.2092 5.92206 79.1351 5.90735C79.061 5.89412 79.0097 5.88088 78.9813 5.86765L79.1232 5.40882C79.2589 5.44118 79.3787 5.45294 79.4828 5.44412C79.5869 5.43529 79.6792 5.39191 79.7596 5.31397C79.8416 5.2375 79.9166 5.11324 79.9844 4.94118L80.0885 4.67647L78.7447 1.27059H79.3504L80.3534 3.97059H80.3913L81.3944 1.27059H82L80.4575 5.15294C80.3881 5.32794 80.3022 5.47279 80.1997 5.5875C80.0971 5.70368 79.9781 5.78971 79.8424 5.84559C79.7084 5.90147 79.557 5.92941 79.3882 5.92941Z" fill="white"/>
<path d="M12.3859 20.5402C12.3912 19.205 10.5904 19.015 10.1437 20.1738L10 20.2338V20.8277L10.1467 20.8841C10.5916 22.0536 12.3805 21.8552 12.3853 20.5408L12.3859 20.5402Z" fill="#0084FE"/>
<path d="M12.4995 20.3776C12.3795 19.0204 10.3732 18.8974 10.002 20.2326L10.1457 20.1726C10.5917 19.0139 12.3926 19.2039 12.3878 20.5391C12.3825 21.8535 10.5941 22.0519 10.1493 20.8824L10.0025 20.826C10.483 22.3031 12.6414 21.9782 12.5001 20.377L12.4995 20.3776Z" fill="#0084FE"/>
<path d="M18.5367 15.852C17.9142 15.9607 17.935 16.6978 17.7663 17.161C17.4034 18.1577 16.5505 19.0361 15.5539 19.4032C15.2759 19.5053 14.9558 19.5303 14.7081 19.6265C13.8374 19.9656 14.0875 21.185 15.0758 21.125C16.9942 21.0092 19.2773 18.7267 19.4424 16.8178C19.4929 16.2321 19.1769 15.7397 18.5367 15.852Z" fill="#FE5B00"/>
<path d="M12.4631 12.5097C12.0461 11.2868 10.3676 11.4465 10 12.6267V13.2206C10.4841 14.9437 13.0309 14.1751 12.4631 12.5097Z" fill="#FEC000"/>
<path d="M15.1391 12.2428C14.3545 12.2428 14.4561 12.9127 14.3206 13.4134C14.0255 14.5093 13.4695 15.2832 12.3761 15.6859C11.7738 15.908 10.5901 15.794 10.6156 16.6872C10.6471 17.8009 12.2133 17.3162 12.8388 17.0988C14.2517 16.6077 15.2508 15.5481 15.673 14.1125C15.8584 13.4829 16.1832 12.2422 15.1385 12.2422L15.1391 12.2428Z" fill="#FEC000"/>
<path d="M18.8383 11.6308C16.9276 11.7282 17.5311 14.8232 19.4162 14.0546C20.6629 13.5462 20.2365 11.5595 18.8383 11.6308Z" fill="#FEC000"/>
<path d="M25.6337 11.8761C26.8377 11.8761 27.7617 12.0882 28.4066 12.5115C29.0516 12.9347 29.374 13.6285 29.374 14.5906C29.374 15.5527 29.0473 16.2624 28.3949 16.693C27.7426 17.1237 26.8101 17.3401 25.5987 17.3401H25.028V20.043H23.2109V12.085C23.6066 12.0076 24.0267 11.9535 24.469 11.9217C24.9114 11.8909 25.2996 11.875 25.6337 11.875V11.8761ZM25.7504 13.4259C25.6178 13.4259 25.4884 13.4301 25.3601 13.4375C25.2317 13.4449 25.1214 13.4534 25.028 13.4609V15.7914H25.5987C26.2278 15.7914 26.7019 15.7055 27.0202 15.5347C27.3384 15.3639 27.4975 15.0457 27.4975 14.5789C27.4975 14.354 27.4572 14.1673 27.3755 14.0199C27.2939 13.8724 27.1772 13.7536 27.0265 13.6645C26.8749 13.5754 26.6903 13.5128 26.4728 13.4778C26.2554 13.4428 26.0146 13.4259 25.7504 13.4259Z" fill="white"/>
<path d="M32.5676 13.7493C33.08 13.7493 33.5074 13.8076 33.849 13.9243C34.1906 14.041 34.4643 14.2075 34.6701 14.425C34.8758 14.6424 35.0212 14.9066 35.1071 15.2174C35.193 15.5282 35.2354 15.874 35.2354 16.2538V19.8657C34.9872 19.9198 34.6414 19.9845 34.198 20.0577C33.7557 20.132 33.2189 20.168 32.5899 20.168C32.1942 20.168 31.8346 20.133 31.5121 20.063C31.1897 19.993 30.9117 19.8784 30.6794 19.7193C30.446 19.5602 30.2678 19.3523 30.1437 19.0956C30.0196 18.8389 29.957 18.5249 29.957 18.1515C29.957 17.7781 30.0292 17.4917 30.1724 17.2424C30.3156 16.9942 30.5086 16.7958 30.7494 16.6484C30.9902 16.5009 31.266 16.3938 31.5768 16.328C31.8876 16.2623 32.2101 16.2294 32.5443 16.2294C32.7691 16.2294 32.9696 16.2389 33.1447 16.258C33.3197 16.2771 33.4608 16.3026 33.57 16.3333V16.17C33.57 15.8751 33.4809 15.6385 33.3017 15.4592C33.1224 15.281 32.8126 15.1909 32.3692 15.1909C32.0743 15.1909 31.7826 15.2121 31.4952 15.2545C31.2077 15.2969 30.9595 15.3574 30.7494 15.4348L30.5277 14.0367C30.6285 14.006 30.7547 13.9731 30.9064 13.9381C31.0581 13.9031 31.2225 13.8723 31.4018 13.8447C31.58 13.8172 31.7688 13.7938 31.9672 13.7747C32.1656 13.7556 32.365 13.7461 32.5676 13.7461V13.7493ZM32.7076 18.8293C32.8784 18.8293 33.0418 18.8251 33.1966 18.8177C33.3515 18.8102 33.4767 18.7986 33.569 18.7827V17.4662C33.499 17.4503 33.3939 17.4355 33.2539 17.4196C33.1139 17.4036 32.9855 17.3962 32.8699 17.3962C32.7066 17.3962 32.5538 17.4058 32.4095 17.4249C32.2653 17.444 32.1401 17.4811 32.0308 17.5352C31.9216 17.5893 31.8367 17.6635 31.7741 17.7569C31.7116 17.8502 31.6808 17.9669 31.6808 18.1059C31.6808 18.3774 31.772 18.5663 31.9545 18.6713C32.1369 18.7763 32.3873 18.8283 32.7055 18.8283L32.7076 18.8293Z" fill="white"/>
<path d="M39.2528 20.1577C38.7479 20.1502 38.3384 20.0951 38.0233 19.9943C37.7083 19.8935 37.4601 19.7514 37.2776 19.5689C37.0952 19.3865 36.9711 19.1648 36.9053 18.9049C36.8395 18.645 36.8066 18.3512 36.8066 18.0255V11.28L38.5421 11V17.6755C38.5421 17.8314 38.5537 17.9704 38.5771 18.0945C38.6004 18.2186 38.645 18.3236 38.7107 18.4095C38.7765 18.4954 38.872 18.5654 38.9961 18.6195C39.1202 18.6736 39.2878 18.7087 39.4968 18.7246L39.2517 20.1577H39.2528Z" fill="white"/>
<path d="M46.601 20.0736C46.0801 19.1496 45.5179 18.2363 44.9112 17.3357C44.3055 16.4351 43.6605 15.5844 42.9774 14.7845V20.0736H41.1836V12H42.6634C42.9201 12.2567 43.2033 12.5707 43.5141 12.9441C43.8249 13.3164 44.141 13.7153 44.4635 14.1385C44.786 14.5618 45.1063 15.0009 45.4246 15.4549C45.7428 15.909 46.0419 16.346 46.322 16.7661V12.0011H48.1274V20.0746H46.601V20.0736Z" fill="white"/>
<path d="M49.5859 17.052C49.5859 16.5088 49.6697 16.0326 49.8363 15.6242C50.0028 15.2168 50.2224 14.8763 50.495 14.6047C50.7666 14.3332 51.0795 14.1274 51.4327 13.9874C51.786 13.8474 52.1488 13.7773 52.5222 13.7773C53.392 13.7773 54.0794 14.0436 54.5843 14.575C55.0892 15.1076 55.3417 15.8893 55.3417 16.9225C55.3417 17.0233 55.3375 17.1347 55.33 17.2546C55.3226 17.3755 55.3141 17.4816 55.3067 17.5749H51.3691C51.4083 17.9324 51.5749 18.2156 51.8698 18.4257C52.1647 18.6357 52.5614 18.7407 53.0579 18.7407C53.3761 18.7407 53.689 18.711 53.9956 18.6537C54.3021 18.5954 54.5525 18.5233 54.7466 18.4384L54.98 19.8482C54.8866 19.8948 54.7625 19.9415 54.6076 19.9882C54.4517 20.0349 54.2799 20.0752 54.0889 20.1102C53.898 20.1452 53.6943 20.1738 53.4769 20.1972C53.2594 20.2205 53.0419 20.2322 52.8245 20.2322C52.2729 20.2322 51.7934 20.1505 51.3861 19.9871C50.9787 19.8238 50.6403 19.601 50.372 19.3167C50.1036 19.0335 49.9063 18.6972 49.7779 18.309C49.6496 17.9207 49.5859 17.5017 49.5859 17.0509V17.052ZM53.6646 16.3879C53.6572 16.2405 53.6317 16.0962 53.5893 15.9572C53.5469 15.8172 53.48 15.6931 53.3909 15.5849C53.3018 15.4756 53.1894 15.3865 53.0525 15.3165C52.9168 15.2465 52.7481 15.2115 52.5455 15.2115C52.3429 15.2115 52.1848 15.2444 52.0448 15.3102C51.9048 15.3759 51.7881 15.464 51.6958 15.5722C51.6025 15.6814 51.5303 15.8077 51.4805 15.9509C51.4296 16.0951 51.3935 16.2405 51.3702 16.3879H53.6657H53.6646Z" fill="white"/>
<path d="M58.438 18.8252C58.7562 18.8252 58.9811 18.7945 59.1137 18.7319C59.2452 18.6704 59.312 18.5494 59.312 18.3712C59.312 18.2312 59.2261 18.1092 59.0553 18.0042C58.8845 17.8992 58.6247 17.7814 58.2746 17.6488C58.003 17.5481 57.7559 17.443 57.5352 17.3348C57.3135 17.2266 57.1258 17.0962 56.9698 16.9445C56.8139 16.7928 56.694 16.6125 56.6092 16.4024C56.5233 16.1924 56.4808 15.9399 56.4808 15.645C56.4808 15.0701 56.694 14.6161 57.1215 14.2819C57.549 13.9478 58.1356 13.7812 58.8803 13.7812C59.2526 13.7812 59.6101 13.8141 59.9517 13.8799C60.2932 13.9457 60.5648 14.0178 60.7674 14.0952L60.464 15.4467C60.2625 15.3767 60.0429 15.3151 59.8053 15.26C59.5687 15.2059 59.3025 15.1783 59.0076 15.1783C58.4634 15.1783 58.1919 15.33 58.1919 15.6323C58.1919 15.7023 58.2035 15.7649 58.2269 15.819C58.2502 15.8731 58.2969 15.9261 58.3669 15.976C58.4369 16.0269 58.5313 16.081 58.6522 16.1394C58.7721 16.1977 58.9259 16.2624 59.1126 16.3335C59.4934 16.4746 59.8074 16.6135 60.0567 16.7504C60.3049 16.8872 60.5012 17.0357 60.6454 17.1938C60.7886 17.3529 60.8905 17.529 60.9488 17.7231C61.0072 17.9172 61.0358 18.1421 61.0358 18.3967C61.0358 19.0013 60.8088 19.4585 60.3537 19.7683C59.8997 20.078 59.2569 20.2329 58.4252 20.2329C57.881 20.2329 57.4292 20.1862 57.0674 20.0929C56.7057 19.9995 56.4554 19.9221 56.3164 19.8595L56.6081 18.4497C56.903 18.5664 57.2064 18.6576 57.5172 18.7234C57.828 18.7892 58.1346 18.8221 58.438 18.8221V18.8252Z" fill="white"/>
<path d="M62.2695 12.4168L64.006 12.1367V13.9422H66.0915V15.3869H64.006V17.5424C64.006 17.9073 64.0697 18.199 64.198 18.4165C64.3264 18.634 64.5841 18.7432 64.9724 18.7432C65.1591 18.7432 65.3511 18.7252 65.5494 18.6902C65.7478 18.6552 65.9281 18.6064 66.0915 18.5449L66.3365 19.8963C66.1265 19.9822 65.8942 20.0554 65.6375 20.118C65.3808 20.1806 65.0668 20.2113 64.6934 20.2113C64.2192 20.2113 63.8267 20.1477 63.517 20.0193C63.2062 19.891 62.958 19.7128 62.7713 19.4836C62.5846 19.2545 62.4552 18.9766 62.3809 18.6509C62.3067 18.3242 62.2706 17.9636 62.2706 17.5679V12.4178L62.2695 12.4168Z" fill="white"/>
<path d="M72.9987 16.9936C72.9987 17.4752 72.9287 17.9165 72.7887 18.3164C72.6487 18.7163 72.4471 19.0579 72.183 19.3422C71.9189 19.6254 71.6028 19.845 71.2336 20.0009C70.8645 20.1558 70.4508 20.2343 69.9925 20.2343C69.5343 20.2343 69.1322 20.1568 68.7631 20.0009C68.3939 19.846 68.0778 19.6265 67.8137 19.3422C67.5495 19.0589 67.3438 18.7174 67.1963 18.3164C67.0489 17.9165 66.9746 17.4763 66.9746 16.9936C66.9746 16.511 67.0499 16.0729 67.2016 15.6772C67.3533 15.2815 67.5633 14.9431 67.8307 14.6631C68.099 14.383 68.4173 14.1656 68.7864 14.0107C69.1556 13.8558 69.5576 13.7773 69.9925 13.7773C70.4274 13.7773 70.8411 13.8548 71.2103 14.0107C71.5794 14.1666 71.8955 14.383 72.1597 14.6631C72.4238 14.9431 72.6296 15.2805 72.777 15.6772C72.9245 16.0729 72.9987 16.512 72.9987 16.9936ZM71.2273 16.9936C71.2273 16.4579 71.1201 16.0368 70.9069 15.7292C70.6926 15.4226 70.3882 15.2688 69.9925 15.2688C69.5968 15.2688 69.2892 15.4226 69.0718 15.7292C68.8543 16.0357 68.745 16.4579 68.745 16.9936C68.745 17.5293 68.8532 17.9547 69.0718 18.2697C69.2892 18.5837 69.5958 18.7418 69.9925 18.7418C70.3892 18.7418 70.6937 18.5848 70.9069 18.2697C71.1201 17.9547 71.2273 17.5304 71.2273 16.9936Z" fill="white"/>
</svg>
