<svg width="202" height="17" viewBox="0 0 202 17" fill="none" xmlns="http://www.w3.org/2000/svg">
<path d="M2.74982 12H0.0566406V3.27273H2.86914C3.71573 3.27273 4.44016 3.44744 5.04244 3.79688C5.64471 4.14347 6.10636 4.64205 6.42738 5.29261C6.7484 5.94034 6.90891 6.71591 6.90891 7.61932C6.90891 8.52841 6.74698 9.31108 6.42312 9.96733C6.09925 10.6207 5.62766 11.1236 5.00835 11.4759C4.38903 11.8253 3.63619 12 2.74982 12ZM1.11346 11.0625H2.68164C3.40323 11.0625 4.00124 10.9233 4.47567 10.6449C4.95011 10.3665 5.3038 9.97017 5.53675 9.45597C5.76971 8.94176 5.88619 8.32955 5.88619 7.61932C5.88619 6.91477 5.77113 6.30824 5.54102 5.79972C5.3109 5.28835 4.96715 4.89631 4.50977 4.62358C4.05238 4.34801 3.48278 4.21023 2.80096 4.21023H1.11346V11.0625Z" fill="white"/>
<path d="M11.2896 12.1364C10.6589 12.1364 10.1149 11.9972 9.65749 11.7188C9.20295 11.4375 8.85209 11.0455 8.60494 10.5426C8.36062 10.0369 8.23846 9.44886 8.23846 8.77841C8.23846 8.10795 8.36062 7.51705 8.60494 7.00568C8.85209 6.49148 9.19584 6.09091 9.63619 5.80398C10.0794 5.5142 10.5964 5.36932 11.1873 5.36932C11.5282 5.36932 11.8649 5.42614 12.1973 5.53977C12.5297 5.65341 12.8322 5.83807 13.1049 6.09375C13.3777 6.34659 13.595 6.68182 13.7569 7.09943C13.9189 7.51705 13.9998 8.03125 13.9998 8.64205V9.06818H8.95437V8.19886H12.9771C12.9771 7.82955 12.9032 7.5 12.7555 7.21023C12.6106 6.92045 12.4032 6.69176 12.1333 6.52415C11.8663 6.35653 11.551 6.27273 11.1873 6.27273C10.7868 6.27273 10.4402 6.37216 10.1475 6.57102C9.85778 6.76705 9.63477 7.02273 9.47852 7.33807C9.32227 7.65341 9.24414 7.99148 9.24414 8.35227V8.93182C9.24414 9.42614 9.32937 9.84517 9.49982 10.1889C9.67312 10.5298 9.91317 10.7898 10.22 10.9688C10.5268 11.1449 10.8833 11.233 11.2896 11.233C11.5538 11.233 11.7924 11.196 12.0055 11.1222C12.2214 11.0455 12.4075 10.9318 12.5637 10.7812C12.72 10.6278 12.8407 10.4375 12.926 10.2102L13.8976 10.483C13.7953 10.8125 13.6234 11.1023 13.3819 11.3523C13.1404 11.5994 12.8422 11.7926 12.487 11.9318C12.1319 12.0682 11.7328 12.1364 11.2896 12.1364Z" fill="white"/>
<path d="M20.166 6.92045L19.2626 7.17614C19.2058 7.02557 19.122 6.87926 19.0112 6.73722C18.9032 6.59233 18.7555 6.47301 18.568 6.37926C18.3805 6.28551 18.1404 6.23864 17.8478 6.23864C17.4473 6.23864 17.1135 6.33097 16.8464 6.51562C16.5822 6.69744 16.4501 6.92898 16.4501 7.21023C16.4501 7.46023 16.541 7.65767 16.7228 7.80256C16.9047 7.94744 17.1887 8.06818 17.5751 8.16477L18.5467 8.40341C19.1319 8.54545 19.568 8.76278 19.8549 9.0554C20.1419 9.34517 20.2853 9.71875 20.2853 10.1761C20.2853 10.5511 20.1774 10.8864 19.9615 11.1818C19.7484 11.4773 19.4501 11.7102 19.0666 11.8807C18.6831 12.0511 18.237 12.1364 17.7285 12.1364C17.0609 12.1364 16.5083 11.9915 16.0708 11.7017C15.6333 11.4119 15.3564 10.9886 15.2399 10.4318L16.1944 10.1932C16.2853 10.5455 16.4572 10.8097 16.7101 10.9858C16.9657 11.1619 17.2995 11.25 17.7115 11.25C18.1802 11.25 18.5524 11.1506 18.8279 10.9517C19.1064 10.75 19.2456 10.5085 19.2456 10.2273C19.2456 10 19.166 9.80966 19.0069 9.65625C18.8478 9.5 18.6035 9.38352 18.274 9.30682L17.1831 9.05114C16.5836 8.90909 16.1433 8.68892 15.862 8.39062C15.5836 8.08949 15.4444 7.71307 15.4444 7.26136C15.4444 6.89205 15.5481 6.56534 15.7555 6.28125C15.9657 5.99716 16.2512 5.77415 16.612 5.61222C16.9757 5.45028 17.3876 5.36932 17.8478 5.36932C18.4956 5.36932 19.0041 5.51136 19.3734 5.79545C19.7456 6.07955 20.0098 6.45455 20.166 6.92045Z" fill="white"/>
<path d="M21.7992 12V5.45455H22.8049V12H21.7992ZM22.3105 4.36364C22.1145 4.36364 21.9455 4.29688 21.8034 4.16335C21.6642 4.02983 21.5946 3.86932 21.5946 3.68182C21.5946 3.49432 21.6642 3.33381 21.8034 3.20028C21.9455 3.06676 22.1145 3 22.3105 3C22.5066 3 22.6742 3.06676 22.8134 3.20028C22.9554 3.33381 23.0265 3.49432 23.0265 3.68182C23.0265 3.86932 22.9554 4.02983 22.8134 4.16335C22.6742 4.29688 22.5066 4.36364 22.3105 4.36364Z" fill="white"/>
<path d="M27.2889 14.5909C26.8031 14.5909 26.3855 14.5284 26.036 14.4034C25.6866 14.2812 25.3954 14.1193 25.1625 13.9176C24.9324 13.7188 24.7491 13.5057 24.6127 13.2784L25.4139 12.7159C25.5048 12.8352 25.6199 12.9716 25.7591 13.125C25.8983 13.2812 26.0886 13.4162 26.3301 13.5298C26.5744 13.6463 26.894 13.7045 27.2889 13.7045C27.8173 13.7045 28.2534 13.5767 28.5971 13.321C28.9409 13.0653 29.1127 12.6648 29.1127 12.1193V10.7898H29.0275C28.9537 10.9091 28.8485 11.0568 28.7122 11.233C28.5787 11.4063 28.3855 11.5611 28.1326 11.6974C27.8826 11.831 27.5446 11.8977 27.1184 11.8977C26.59 11.8977 26.1156 11.7727 25.6951 11.5227C25.2775 11.2727 24.9466 10.9091 24.7022 10.4318C24.4608 9.95455 24.34 9.375 24.34 8.69318C24.34 8.02273 24.4579 7.43892 24.6937 6.94176C24.9295 6.44176 25.2576 6.0554 25.6781 5.78267C26.0985 5.5071 26.5843 5.36932 27.1355 5.36932C27.5616 5.36932 27.8997 5.44034 28.1497 5.58239C28.4025 5.72159 28.5957 5.88068 28.7292 6.05966C28.8656 6.2358 28.9707 6.38068 29.0446 6.49432H29.1468V5.45455H30.1184V12.1875C30.1184 12.75 29.9906 13.2074 29.7349 13.5597C29.4821 13.9148 29.1412 14.1747 28.7122 14.3395C28.286 14.5071 27.8116 14.5909 27.2889 14.5909ZM27.2548 10.9943C27.6582 10.9943 27.9991 10.902 28.2775 10.7173C28.5559 10.5327 28.7676 10.267 28.9125 9.92045C29.0574 9.57386 29.1298 9.15909 29.1298 8.67614C29.1298 8.20455 29.0588 7.78835 28.9167 7.42756C28.7747 7.06676 28.5645 6.78409 28.286 6.57955C28.0076 6.375 27.6639 6.27273 27.2548 6.27273C26.8287 6.27273 26.4735 6.38068 26.1895 6.59659C25.9082 6.8125 25.6966 7.10227 25.5545 7.46591C25.4153 7.82955 25.3457 8.23295 25.3457 8.67614C25.3457 9.13068 25.4167 9.53267 25.5588 9.8821C25.7037 10.2287 25.9167 10.5014 26.198 10.7003C26.4821 10.8963 26.8343 10.9943 27.2548 10.9943Z" fill="white"/>
<path d="M32.965 8.0625V12H31.9593V5.45455H32.9309V6.47727H33.0162C33.1696 6.14489 33.4025 5.87784 33.715 5.67614C34.0275 5.47159 34.4309 5.36932 34.9252 5.36932C35.3684 5.36932 35.7562 5.46023 36.0886 5.64205C36.421 5.82102 36.6795 6.09375 36.8642 6.46023C37.0488 6.82386 37.1412 7.28409 37.1412 7.84091V12H36.1355V7.90909C36.1355 7.39489 36.002 6.99432 35.7349 6.70739C35.4679 6.41761 35.1014 6.27273 34.6355 6.27273C34.3145 6.27273 34.0275 6.34233 33.7747 6.48153C33.5247 6.62074 33.3272 6.82386 33.1824 7.09091C33.0375 7.35795 32.965 7.68182 32.965 8.0625Z" fill="white"/>
<path d="M41.7232 12.1364C41.0925 12.1364 40.5485 11.9972 40.0911 11.7188C39.6365 11.4375 39.2857 11.0455 39.0385 10.5426C38.7942 10.0369 38.6721 9.44886 38.6721 8.77841C38.6721 8.10795 38.7942 7.51705 39.0385 7.00568C39.2857 6.49148 39.6294 6.09091 40.0698 5.80398C40.513 5.5142 41.03 5.36932 41.6209 5.36932C41.9618 5.36932 42.2985 5.42614 42.6309 5.53977C42.9632 5.65341 43.2658 5.83807 43.5385 6.09375C43.8113 6.34659 44.0286 6.68182 44.1905 7.09943C44.3524 7.51705 44.4334 8.03125 44.4334 8.64205V9.06818H39.388V8.19886H43.4107C43.4107 7.82955 43.3368 7.5 43.1891 7.21023C43.0442 6.92045 42.8368 6.69176 42.5669 6.52415C42.2999 6.35653 41.9846 6.27273 41.6209 6.27273C41.2203 6.27273 40.8738 6.37216 40.5811 6.57102C40.2914 6.76705 40.0684 7.02273 39.9121 7.33807C39.7559 7.65341 39.6777 7.99148 39.6777 8.35227V8.93182C39.6777 9.42614 39.763 9.84517 39.9334 10.1889C40.1067 10.5298 40.3468 10.7898 40.6536 10.9688C40.9604 11.1449 41.3169 11.233 41.7232 11.233C41.9874 11.233 42.226 11.196 42.4391 11.1222C42.655 11.0455 42.8411 10.9318 42.9973 10.7812C43.1536 10.6278 43.2743 10.4375 43.3596 10.2102L44.3311 10.483C44.2289 10.8125 44.057 11.1023 43.8155 11.3523C43.574 11.5994 43.2757 11.7926 42.9206 11.9318C42.5655 12.0682 42.1664 12.1364 41.7232 12.1364Z" fill="white"/>
<path d="M48.4348 12.1364C47.8894 12.1364 47.4078 11.9986 46.9902 11.723C46.5726 11.4446 46.2459 11.0526 46.0101 10.5469C45.7743 10.0384 45.6564 9.4375 45.6564 8.74432C45.6564 8.05682 45.7743 7.46023 46.0101 6.95455C46.2459 6.44886 46.574 6.05824 46.9945 5.78267C47.415 5.5071 47.9007 5.36932 48.4519 5.36932C48.878 5.36932 49.2147 5.44034 49.4618 5.58239C49.7118 5.72159 49.9022 5.88068 50.0328 6.05966C50.1664 6.2358 50.2701 6.38068 50.3439 6.49432H50.4292V3.27273H51.4348V12H50.4632V10.9943H50.3439C50.2701 11.1136 50.165 11.2642 50.0286 11.446C49.8922 11.625 49.6976 11.7855 49.4448 11.9276C49.1919 12.0668 48.8553 12.1364 48.4348 12.1364ZM48.5712 11.233C48.9746 11.233 49.3155 11.1278 49.5939 10.9176C49.8723 10.7045 50.084 10.4105 50.2289 10.0355C50.3738 9.65767 50.4462 9.22159 50.4462 8.72727C50.4462 8.23864 50.3752 7.81108 50.2331 7.4446C50.0911 7.07528 49.8809 6.78835 49.6025 6.58381C49.324 6.37642 48.9803 6.27273 48.5712 6.27273C48.1451 6.27273 47.79 6.3821 47.5059 6.60085C47.2246 6.81676 47.013 7.1108 46.8709 7.48295C46.7317 7.85227 46.6621 8.26705 46.6621 8.72727C46.6621 9.19318 46.7331 9.61648 46.8752 9.99716C47.0201 10.375 47.2331 10.6761 47.5144 10.9006C47.7985 11.1222 48.1507 11.233 48.5712 11.233Z" fill="white"/>
<path d="M59.263 12.1193C58.6891 12.1193 58.1948 12.0142 57.78 11.804C57.3652 11.5937 57.0456 11.3054 56.8212 10.9389C56.5968 10.5724 56.4846 10.1534 56.4846 9.68182C56.4846 9.31818 56.5613 8.99574 56.7147 8.71449C56.8709 8.4304 57.0854 8.16761 57.3581 7.92614C57.6337 7.68182 57.9505 7.4375 58.3084 7.19318L59.5698 6.25568C59.8169 6.09375 60.0144 5.92045 60.1621 5.7358C60.3127 5.55114 60.388 5.30966 60.388 5.01136C60.388 4.78977 60.29 4.57528 60.0939 4.3679C59.9007 4.16051 59.6465 4.05682 59.3311 4.05682C59.1096 4.05682 58.9135 4.11364 58.7431 4.22727C58.5755 4.33807 58.4434 4.48011 58.3468 4.65341C58.253 4.82386 58.2061 5 58.2061 5.18182C58.2061 5.38636 58.2615 5.59375 58.3723 5.80398C58.486 6.01136 58.6294 6.22443 58.8027 6.44318C58.9789 6.65909 59.1607 6.88068 59.3482 7.10795L63.3539 12H62.1436L58.8368 8.01136C58.53 7.64205 58.2516 7.30682 58.0016 7.00568C57.7516 6.70455 57.5527 6.40767 57.405 6.11506C57.2573 5.82244 57.1834 5.50568 57.1834 5.16477C57.1834 4.77273 57.2701 4.42898 57.4434 4.13352C57.6195 3.83523 57.8652 3.60369 58.1806 3.43892C58.4988 3.27131 58.8709 3.1875 59.2971 3.1875C59.7346 3.1875 60.111 3.27273 60.4263 3.44318C60.7417 3.6108 60.9846 3.83381 61.155 4.11222C61.3255 4.38778 61.4107 4.6875 61.4107 5.01136C61.4107 5.42898 61.307 5.79119 61.0996 6.09801C60.8922 6.40483 60.6096 6.69034 60.2516 6.95455L58.513 8.25C58.1209 8.53977 57.8553 8.82102 57.7161 9.09375C57.5769 9.36648 57.5073 9.5625 57.5073 9.68182C57.5073 9.95455 57.5783 10.2088 57.7203 10.4446C57.8624 10.6804 58.0627 10.8707 58.3212 11.0156C58.5797 11.1605 58.8823 11.233 59.2289 11.233C59.5584 11.233 59.8794 11.1634 60.1919 11.0241C60.5044 10.8821 60.7871 10.6776 61.04 10.4105C61.2956 10.1435 61.4973 9.82244 61.6451 9.44744C61.7956 9.07244 61.8709 8.65057 61.8709 8.18182H62.8425C62.8425 8.76136 62.7757 9.23437 62.6422 9.60085C62.5087 9.96733 62.3581 10.2543 62.1905 10.4616C62.0229 10.669 61.888 10.8239 61.7857 10.9261C61.7516 10.9688 61.7203 11.0114 61.6919 11.054C61.6635 11.0966 61.6323 11.1392 61.5982 11.1818C61.3169 11.4972 60.9618 11.733 60.5328 11.8892C60.1039 12.0426 59.6806 12.1193 59.263 12.1193Z" fill="white"/>
<path d="M74.0467 12H71.3535V3.27273H74.166C75.0126 3.27273 75.737 3.44744 76.3393 3.79688C76.9416 4.14347 77.4032 4.64205 77.7243 5.29261C78.0453 5.94034 78.2058 6.71591 78.2058 7.61932C78.2058 8.52841 78.0439 9.31108 77.72 9.96733C77.3961 10.6207 76.9245 11.1236 76.3052 11.4759C75.6859 11.8253 74.9331 12 74.0467 12ZM72.4103 11.0625H73.9785C74.7001 11.0625 75.2981 10.9233 75.7726 10.6449C76.247 10.3665 76.6007 9.97017 76.8336 9.45597C77.0666 8.94176 77.1831 8.32955 77.1831 7.61932C77.1831 6.91477 77.068 6.30824 76.8379 5.79972C76.6078 5.28835 76.264 4.89631 75.8066 4.62358C75.3493 4.34801 74.7796 4.21023 74.0978 4.21023H72.4103V11.0625Z" fill="white"/>
<path d="M82.5865 12.1364C81.9558 12.1364 81.4118 11.9972 80.9544 11.7188C80.4998 11.4375 80.149 11.0455 79.9018 10.5426C79.6575 10.0369 79.5353 9.44886 79.5353 8.77841C79.5353 8.10795 79.6575 7.51705 79.9018 7.00568C80.149 6.49148 80.4927 6.09091 80.9331 5.80398C81.3762 5.5142 81.8933 5.36932 82.4842 5.36932C82.8251 5.36932 83.1618 5.42614 83.4941 5.53977C83.8265 5.65341 84.1291 5.83807 84.4018 6.09375C84.6745 6.34659 84.8919 6.68182 85.0538 7.09943C85.2157 7.51705 85.2967 8.03125 85.2967 8.64205V9.06818H80.2512V8.19886H84.274C84.274 7.82955 84.2001 7.5 84.0524 7.21023C83.9075 6.92045 83.7001 6.69176 83.4302 6.52415C83.1632 6.35653 82.8478 6.27273 82.4842 6.27273C82.0836 6.27273 81.737 6.37216 81.4444 6.57102C81.1547 6.76705 80.9316 7.02273 80.7754 7.33807C80.6191 7.65341 80.541 7.99148 80.541 8.35227V8.93182C80.541 9.42614 80.6262 9.84517 80.7967 10.1889C80.97 10.5298 81.2101 10.7898 81.5169 10.9688C81.8237 11.1449 82.1802 11.233 82.5865 11.233C82.8507 11.233 83.0893 11.196 83.3024 11.1222C83.5183 11.0455 83.7044 10.9318 83.8606 10.7812C84.0169 10.6278 84.1376 10.4375 84.2228 10.2102L85.1944 10.483C85.0922 10.8125 84.9203 11.1023 84.6788 11.3523C84.4373 11.5994 84.139 11.7926 83.7839 11.9318C83.4288 12.0682 83.0297 12.1364 82.5865 12.1364Z" fill="white"/>
<path d="M91.9796 5.45455L89.5591 12H88.5364L86.1159 5.45455H87.2069L89.0137 10.6705H89.0819L90.8887 5.45455H91.9796Z" fill="white"/>
<path d="M95.8169 12.1364C95.1863 12.1364 94.6422 11.9972 94.1848 11.7188C93.7303 11.4375 93.3794 11.0455 93.1323 10.5426C92.888 10.0369 92.7658 9.44886 92.7658 8.77841C92.7658 8.10795 92.888 7.51705 93.1323 7.00568C93.3794 6.49148 93.7232 6.09091 94.1635 5.80398C94.6067 5.5142 95.1238 5.36932 95.7147 5.36932C96.0556 5.36932 96.3922 5.42614 96.7246 5.53977C97.057 5.65341 97.3596 5.83807 97.6323 6.09375C97.905 6.34659 98.1223 6.68182 98.2843 7.09943C98.4462 7.51705 98.5272 8.03125 98.5272 8.64205V9.06818H93.4817V8.19886H97.5044C97.5044 7.82955 97.4306 7.5 97.2828 7.21023C97.138 6.92045 96.9306 6.69176 96.6607 6.52415C96.3936 6.35653 96.0783 6.27273 95.7147 6.27273C95.3141 6.27273 94.9675 6.37216 94.6749 6.57102C94.3851 6.76705 94.1621 7.02273 94.0059 7.33807C93.8496 7.65341 93.7715 7.99148 93.7715 8.35227V8.93182C93.7715 9.42614 93.8567 9.84517 94.0272 10.1889C94.2005 10.5298 94.4405 10.7898 94.7473 10.9688C95.0542 11.1449 95.4107 11.233 95.8169 11.233C96.0811 11.233 96.3198 11.196 96.5328 11.1222C96.7488 11.0455 96.9348 10.9318 97.0911 10.7812C97.2473 10.6278 97.3681 10.4375 97.4533 10.2102L98.4249 10.483C98.3226 10.8125 98.1507 11.1023 97.9093 11.3523C97.6678 11.5994 97.3695 11.7926 97.0144 11.9318C96.6593 12.0682 96.2601 12.1364 95.8169 12.1364Z" fill="white"/>
<path d="M101.063 3.27273V12H100.057V3.27273H101.063Z" fill="white"/>
<path d="M105.564 12.1364C104.973 12.1364 104.454 11.9957 104.008 11.7145C103.565 11.4332 103.219 11.0398 102.969 10.5341C102.721 10.0284 102.598 9.4375 102.598 8.76136C102.598 8.07955 102.721 7.48437 102.969 6.97585C103.219 6.46733 103.565 6.07244 104.008 5.79119C104.454 5.50994 104.973 5.36932 105.564 5.36932C106.155 5.36932 106.672 5.50994 107.115 5.79119C107.561 6.07244 107.907 6.46733 108.155 6.97585C108.405 7.48437 108.53 8.07955 108.53 8.76136C108.53 9.4375 108.405 10.0284 108.155 10.5341C107.907 11.0398 107.561 11.4332 107.115 11.7145C106.672 11.9957 106.155 12.1364 105.564 12.1364ZM105.564 11.233C106.013 11.233 106.382 11.1179 106.672 10.8878C106.961 10.6577 107.176 10.3551 107.315 9.98011C107.454 9.60511 107.524 9.19886 107.524 8.76136C107.524 8.32386 107.454 7.91619 107.315 7.53835C107.176 7.16051 106.961 6.85511 106.672 6.62216C106.382 6.3892 106.013 6.27273 105.564 6.27273C105.115 6.27273 104.746 6.3892 104.456 6.62216C104.166 6.85511 103.952 7.16051 103.812 7.53835C103.673 7.91619 103.604 8.32386 103.604 8.76136C103.604 9.19886 103.673 9.60511 103.812 9.98011C103.952 10.3551 104.166 10.6577 104.456 10.8878C104.746 11.1179 105.115 11.233 105.564 11.233Z" fill="white"/>
<path d="M110.065 14.4545V5.45455H111.036V6.49432H111.156C111.23 6.38068 111.332 6.2358 111.463 6.05966C111.596 5.88068 111.786 5.72159 112.034 5.58239C112.284 5.44034 112.622 5.36932 113.048 5.36932C113.599 5.36932 114.085 5.5071 114.505 5.78267C114.926 6.05824 115.254 6.44886 115.49 6.95455C115.725 7.46023 115.843 8.05682 115.843 8.74432C115.843 9.4375 115.725 10.0384 115.49 10.5469C115.254 11.0526 114.927 11.4446 114.509 11.723C114.092 11.9986 113.61 12.1364 113.065 12.1364C112.644 12.1364 112.308 12.0668 112.055 11.9276C111.802 11.7855 111.607 11.625 111.471 11.446C111.335 11.2642 111.23 11.1136 111.156 10.9943H111.07V14.4545H110.065ZM111.053 8.72727C111.053 9.22159 111.126 9.65767 111.271 10.0355C111.416 10.4105 111.627 10.7045 111.906 10.9176C112.184 11.1278 112.525 11.233 112.928 11.233C113.349 11.233 113.7 11.1222 113.981 10.9006C114.265 10.6761 114.478 10.375 114.62 9.99716C114.765 9.61648 114.838 9.19318 114.838 8.72727C114.838 8.26705 114.767 7.85227 114.624 7.48295C114.485 7.1108 114.274 6.81676 113.99 6.60085C113.708 6.3821 113.355 6.27273 112.928 6.27273C112.519 6.27273 112.176 6.37642 111.897 6.58381C111.619 6.78835 111.409 7.07528 111.267 7.4446C111.124 7.81108 111.053 8.23864 111.053 8.72727Z" fill="white"/>
<path d="M120.122 12.1364C119.491 12.1364 118.947 11.9972 118.49 11.7188C118.035 11.4375 117.684 11.0455 117.437 10.5426C117.193 10.0369 117.07 9.44886 117.07 8.77841C117.07 8.10795 117.193 7.51705 117.437 7.00568C117.684 6.49148 118.028 6.09091 118.468 5.80398C118.911 5.5142 119.428 5.36932 120.019 5.36932C120.36 5.36932 120.697 5.42614 121.029 5.53977C121.362 5.65341 121.664 5.83807 121.937 6.09375C122.21 6.34659 122.427 6.68182 122.589 7.09943C122.751 7.51705 122.832 8.03125 122.832 8.64205V9.06818H117.786V8.19886H121.809C121.809 7.82955 121.735 7.5 121.588 7.21023C121.443 6.92045 121.235 6.69176 120.965 6.52415C120.698 6.35653 120.383 6.27273 120.019 6.27273C119.619 6.27273 119.272 6.37216 118.98 6.57102C118.69 6.76705 118.467 7.02273 118.311 7.33807C118.154 7.65341 118.076 7.99148 118.076 8.35227V8.93182C118.076 9.42614 118.161 9.84517 118.332 10.1889C118.505 10.5298 118.745 10.7898 119.052 10.9688C119.359 11.1449 119.715 11.233 120.122 11.233C120.386 11.233 120.624 11.196 120.838 11.1222C121.053 11.0455 121.24 10.9318 121.396 10.7812C121.552 10.6278 121.673 10.4375 121.758 10.2102L122.73 10.483C122.627 10.8125 122.455 11.1023 122.214 11.3523C121.972 11.5994 121.674 11.7926 121.319 11.9318C120.964 12.0682 120.565 12.1364 120.122 12.1364Z" fill="white"/>
<path d="M126.833 12.1364C126.288 12.1364 125.806 11.9986 125.389 11.723C124.971 11.4446 124.644 11.0526 124.409 10.5469C124.173 10.0384 124.055 9.4375 124.055 8.74432C124.055 8.05682 124.173 7.46023 124.409 6.95455C124.644 6.44886 124.972 6.05824 125.393 5.78267C125.813 5.5071 126.299 5.36932 126.85 5.36932C127.276 5.36932 127.613 5.44034 127.86 5.58239C128.11 5.72159 128.301 5.88068 128.431 6.05966C128.565 6.2358 128.669 6.38068 128.742 6.49432H128.828V3.27273H129.833V12H128.862V10.9943H128.742C128.669 11.1136 128.563 11.2642 128.427 11.446C128.291 11.625 128.096 11.7855 127.843 11.9276C127.59 12.0668 127.254 12.1364 126.833 12.1364ZM126.97 11.233C127.373 11.233 127.714 11.1278 127.992 10.9176C128.271 10.7045 128.482 10.4105 128.627 10.0355C128.772 9.65767 128.845 9.22159 128.845 8.72727C128.845 8.23864 128.774 7.81108 128.632 7.4446C128.49 7.07528 128.279 6.78835 128.001 6.58381C127.722 6.37642 127.379 6.27273 126.97 6.27273C126.543 6.27273 126.188 6.3821 125.904 6.60085C125.623 6.81676 125.411 7.1108 125.269 7.48295C125.13 7.85227 125.061 8.26705 125.061 8.72727C125.061 9.19318 125.132 9.61648 125.274 9.99716C125.418 10.375 125.632 10.6761 125.913 10.9006C126.197 11.1222 126.549 11.233 126.97 11.233Z" fill="white"/>
<path d="M135.326 12V3.27273H136.332V6.49432H136.417C136.491 6.38068 136.593 6.2358 136.724 6.05966C136.857 5.88068 137.048 5.72159 137.295 5.58239C137.545 5.44034 137.883 5.36932 138.309 5.36932C138.86 5.36932 139.346 5.5071 139.767 5.78267C140.187 6.05824 140.515 6.44886 140.751 6.95455C140.987 7.46023 141.105 8.05682 141.105 8.74432C141.105 9.4375 140.987 10.0384 140.751 10.5469C140.515 11.0526 140.188 11.4446 139.771 11.723C139.353 11.9986 138.872 12.1364 138.326 12.1364C137.906 12.1364 137.569 12.0668 137.316 11.9276C137.063 11.7855 136.869 11.625 136.732 11.446C136.596 11.2642 136.491 11.1136 136.417 10.9943H136.298V12H135.326ZM136.315 8.72727C136.315 9.22159 136.387 9.65767 136.532 10.0355C136.677 10.4105 136.889 10.7045 137.167 10.9176C137.445 11.1278 137.786 11.233 138.19 11.233C138.61 11.233 138.961 11.1222 139.242 10.9006C139.526 10.6761 139.74 10.375 139.882 9.99716C140.026 9.61648 140.099 9.19318 140.099 8.72727C140.099 8.26705 140.028 7.85227 139.886 7.48295C139.747 7.1108 139.535 6.81676 139.251 6.60085C138.97 6.3821 138.616 6.27273 138.19 6.27273C137.781 6.27273 137.437 6.37642 137.159 6.58381C136.88 6.78835 136.67 7.07528 136.528 7.4446C136.386 7.81108 136.315 8.23864 136.315 8.72727Z" fill="white"/>
<path d="M143.056 14.4545C142.886 14.4545 142.734 14.4403 142.6 14.4119C142.467 14.3864 142.374 14.3608 142.323 14.3352L142.579 13.4489C142.823 13.5114 143.039 13.5341 143.227 13.517C143.414 13.5 143.58 13.4162 143.725 13.2656C143.873 13.1179 144.008 12.8778 144.13 12.5455L144.318 12.0341L141.897 5.45455H142.988L144.795 10.6705H144.863L146.67 5.45455H147.761L144.982 12.9545C144.857 13.2926 144.703 13.5724 144.518 13.794C144.333 14.0185 144.119 14.1847 143.874 14.2926C143.633 14.4006 143.36 14.4545 143.056 14.4545Z" fill="white"/>
<path d="M161.383 14.2897C161.39 12.3967 158.837 12.1272 158.204 13.7702L158 13.8552V14.6973L158.208 14.7773C158.839 16.4354 161.375 16.1542 161.382 14.2906L161.383 14.2897Z" fill="#0084FE"/>
<path d="M161.543 14.0612C161.373 12.137 158.528 11.9627 158.002 13.8557L158.206 13.7707C158.838 12.1277 161.391 12.3972 161.385 14.2902C161.377 16.1538 158.842 16.4351 158.211 14.777L158.003 14.697C158.684 16.7913 161.744 16.3307 161.544 14.0603L161.543 14.0612Z" fill="#0084FE"/>
<path d="M170.105 7.64387C169.222 7.79798 169.252 8.84303 169.013 9.49987C168.498 10.9129 167.289 12.1584 165.876 12.6788C165.482 12.8237 165.028 12.859 164.677 12.9954C163.442 13.4763 163.797 15.2051 165.198 15.1201C167.918 14.9559 171.155 11.7197 171.389 9.01313C171.461 8.18282 171.013 7.48471 170.105 7.64387Z" fill="#FE5B00"/>
<path d="M161.492 2.9099C160.901 1.17601 158.521 1.40253 158 3.07579V3.9179C158.686 6.36084 162.297 5.27116 161.492 2.9099Z" fill="#FEC000"/>
<path d="M165.285 2.53209C164.173 2.53209 164.317 3.48199 164.125 4.19188C163.706 5.74556 162.918 6.84282 161.368 7.41377C160.514 7.72871 158.835 7.56703 158.872 8.83356C158.916 10.4125 161.137 9.72534 162.024 9.41713C164.027 8.72071 165.443 7.2184 166.042 5.18303C166.305 4.2904 166.766 2.53125 165.284 2.53125L165.285 2.53209Z" fill="#FEC000"/>
<path d="M170.532 1.66281C167.823 1.80091 168.678 6.18912 171.351 5.09943C173.119 4.37859 172.514 1.56176 170.532 1.66281Z" fill="#FEC000"/>
<path d="M178.656 1.45787C179.612 1.45787 180.345 1.62629 180.857 1.96229C181.369 2.29829 181.625 2.84903 181.625 3.61282C181.625 4.37661 181.366 4.93997 180.848 5.28187C180.33 5.62376 179.59 5.79555 178.628 5.79555H178.175V7.94123H176.732V1.62377C177.047 1.56229 177.38 1.51935 177.731 1.49408C178.082 1.46966 178.391 1.45703 178.656 1.45703V1.45787ZM178.748 2.68819C178.643 2.68819 178.54 2.69156 178.439 2.69745C178.337 2.70334 178.249 2.71008 178.175 2.71598V4.56608H178.628C179.127 4.56608 179.504 4.49787 179.756 4.36229C180.009 4.22671 180.135 3.97408 180.135 3.60355C180.135 3.42503 180.103 3.27682 180.039 3.15977C179.974 3.04271 179.881 2.9484 179.761 2.87766C179.641 2.80692 179.495 2.75724 179.322 2.72945C179.149 2.70166 178.958 2.68819 178.748 2.68819Z" fill="white"/>
<path d="M184.16 2.94393C184.567 2.94393 184.906 2.99025 185.178 3.08288C185.449 3.17551 185.666 3.30772 185.829 3.48035C185.993 3.65298 186.108 3.86267 186.176 4.1094C186.245 4.35614 186.278 4.63067 186.278 4.93214V7.7995C186.081 7.84245 185.807 7.89382 185.455 7.95192C185.103 8.01087 184.677 8.0395 184.178 8.0395C183.864 8.0395 183.578 8.01171 183.322 7.95613C183.066 7.90056 182.846 7.80961 182.661 7.68329C182.476 7.55698 182.335 7.39192 182.236 7.18814C182.138 6.98435 182.088 6.73508 182.088 6.43866C182.088 6.14224 182.145 5.91487 182.259 5.71698C182.373 5.51993 182.526 5.36245 182.717 5.2454C182.908 5.12835 183.127 5.0433 183.374 4.99109C183.621 4.93888 183.877 4.91277 184.142 4.91277C184.32 4.91277 184.479 4.92035 184.618 4.93551C184.757 4.95067 184.869 4.97088 184.956 4.9953V4.86561C184.956 4.63151 184.885 4.44372 184.743 4.3014C184.601 4.15993 184.355 4.08835 184.003 4.08835C183.769 4.08835 183.537 4.10519 183.309 4.13888C183.081 4.17256 182.884 4.22056 182.717 4.28204L182.541 3.17214C182.621 3.14772 182.721 3.12162 182.842 3.09383C182.962 3.06604 183.093 3.04162 183.235 3.01972C183.376 2.99783 183.526 2.9793 183.684 2.96414C183.841 2.94899 183.999 2.94141 184.16 2.94141V2.94393ZM184.271 6.97677C184.407 6.97677 184.537 6.9734 184.66 6.9675C184.783 6.96161 184.882 6.95235 184.955 6.93972V5.89466C184.9 5.88203 184.816 5.87024 184.705 5.85761C184.594 5.84498 184.492 5.83909 184.4 5.83909C184.271 5.83909 184.149 5.84666 184.035 5.86182C183.92 5.87698 183.821 5.90645 183.734 5.9494C183.647 5.99235 183.58 6.0513 183.53 6.1254C183.481 6.19951 183.456 6.29214 183.456 6.40245C183.456 6.61803 183.529 6.76793 183.674 6.85129C183.818 6.93466 184.017 6.97593 184.27 6.97593L184.271 6.97677Z" fill="white"/>
<path d="M189.467 8.0316C189.066 8.02571 188.741 7.98192 188.491 7.90192C188.241 7.82192 188.044 7.70908 187.899 7.56423C187.754 7.41939 187.656 7.24339 187.604 7.03708C187.551 6.83076 187.525 6.5975 187.525 6.33897V0.984034L188.903 0.761719V6.06108C188.903 6.18487 188.912 6.29518 188.931 6.39371C188.949 6.49223 188.985 6.5756 189.037 6.64381C189.089 6.71202 189.165 6.7676 189.263 6.81055C189.362 6.8535 189.495 6.88129 189.661 6.89392L189.466 8.0316H189.467Z" fill="white"/>
<path d="M181.033 16.1085C180.62 15.375 180.173 14.6499 179.692 13.935C179.211 13.2201 178.699 12.5447 178.156 11.9097V16.1085H176.732V9.69922H177.907C178.111 9.90301 178.336 10.1523 178.583 10.4487C178.829 10.7443 179.08 11.0609 179.336 11.3969C179.592 11.7329 179.847 12.0815 180.099 12.442C180.352 12.8024 180.589 13.1493 180.812 13.4828V9.70006H182.245V16.1093H181.033V16.1085Z" fill="white"/>
<path d="M183.402 13.7089C183.402 13.2778 183.469 12.8997 183.601 12.5755C183.733 12.2521 183.908 11.9818 184.124 11.7662C184.34 11.5506 184.588 11.3873 184.868 11.2761C185.149 11.165 185.437 11.1094 185.733 11.1094C186.424 11.1094 186.969 11.3207 187.37 11.7426C187.771 12.1654 187.972 12.786 187.972 13.6062C187.972 13.6862 187.968 13.7746 187.962 13.8698C187.956 13.9658 187.95 14.05 187.944 14.1241H184.818C184.849 14.4079 184.981 14.6327 185.215 14.7995C185.449 14.9662 185.764 15.0496 186.159 15.0496C186.411 15.0496 186.66 15.026 186.903 14.9805C187.146 14.9342 187.345 14.8769 187.499 14.8096L187.684 15.9287C187.61 15.9658 187.512 16.0028 187.389 16.0399C187.265 16.0769 187.129 16.1089 186.977 16.1367C186.825 16.1645 186.664 16.1873 186.491 16.2058C186.319 16.2243 186.146 16.2336 185.973 16.2336C185.535 16.2336 185.155 16.1687 184.831 16.0391C184.508 15.9094 184.239 15.7325 184.026 15.5068C183.813 15.282 183.657 15.0151 183.555 14.7068C183.453 14.3986 183.402 14.066 183.402 13.7081V13.7089ZM186.64 13.1818C186.634 13.0647 186.614 12.9502 186.58 12.8399C186.547 12.7287 186.494 12.6302 186.423 12.5443C186.352 12.4576 186.263 12.3868 186.154 12.3313C186.047 12.2757 185.913 12.2479 185.752 12.2479C185.591 12.2479 185.465 12.274 185.354 12.3262C185.243 12.3784 185.151 12.4483 185.077 12.5342C185.003 12.621 184.946 12.7212 184.906 12.8348C184.866 12.9494 184.837 13.0647 184.819 13.1818H186.641H186.64Z" fill="white"/>
<path d="M190.43 15.1175C190.683 15.1175 190.861 15.0931 190.967 15.0434C191.071 14.9945 191.124 14.8985 191.124 14.7571C191.124 14.6459 191.056 14.5491 190.92 14.4657C190.785 14.3823 190.579 14.2889 190.301 14.1836C190.085 14.1036 189.889 14.0202 189.714 13.9343C189.538 13.8484 189.389 13.7449 189.265 13.6244C189.141 13.504 189.046 13.3609 188.979 13.1941C188.91 13.0274 188.877 12.827 188.877 12.5929C188.877 12.1364 189.046 11.776 189.385 11.5108C189.725 11.2455 190.19 11.1133 190.781 11.1133C191.077 11.1133 191.361 11.1394 191.632 11.1916C191.903 11.2438 192.119 11.3011 192.28 11.3625L192.039 12.4354C191.879 12.3798 191.704 12.331 191.516 12.2872C191.328 12.2442 191.117 12.2223 190.883 12.2223C190.451 12.2223 190.235 12.3428 190.235 12.5828C190.235 12.6383 190.244 12.688 190.263 12.731C190.281 12.7739 190.318 12.816 190.374 12.8556C190.429 12.896 190.504 12.939 190.6 12.9853C190.696 13.0316 190.818 13.083 190.966 13.1394C191.268 13.2514 191.517 13.3617 191.715 13.4703C191.912 13.579 192.068 13.6969 192.183 13.8223C192.296 13.9486 192.377 14.0884 192.424 14.2425C192.47 14.3966 192.493 14.5752 192.493 14.7773C192.493 15.2573 192.312 15.6202 191.951 15.8661C191.591 16.112 191.08 16.235 190.42 16.235C189.988 16.235 189.629 16.1979 189.342 16.1238C189.055 16.0497 188.856 15.9882 188.746 15.9385L188.978 14.8194C189.212 14.912 189.453 14.9844 189.699 15.0366C189.946 15.0889 190.189 15.115 190.43 15.115V15.1175Z" fill="white"/>
<path d="M193.471 10.0309L194.849 9.80859V11.2419H196.505V12.3888H194.849V14.1C194.849 14.3896 194.9 14.6212 195.002 14.7938C195.104 14.9665 195.308 15.0532 195.616 15.0532C195.765 15.0532 195.917 15.0389 196.074 15.0111C196.232 14.9833 196.375 14.9446 196.505 14.8957L196.699 15.9686C196.533 16.0368 196.348 16.0949 196.144 16.1446C195.941 16.1943 195.691 16.2187 195.395 16.2187C195.018 16.2187 194.707 16.1682 194.461 16.0663C194.214 15.9644 194.017 15.8229 193.869 15.641C193.721 15.4591 193.618 15.2385 193.559 14.98C193.5 14.7206 193.472 14.4343 193.472 14.1202V10.0318L193.471 10.0309Z" fill="white"/>
<path d="M201.989 13.6626C201.989 14.0449 201.934 14.3953 201.823 14.7127C201.711 15.0302 201.551 15.3014 201.342 15.5271C201.132 15.7519 200.881 15.9262 200.588 16.05C200.295 16.1729 199.967 16.2353 199.603 16.2353C199.239 16.2353 198.92 16.1738 198.627 16.05C198.334 15.9271 198.083 15.7527 197.873 15.5271C197.663 15.3022 197.5 15.0311 197.383 14.7127C197.266 14.3953 197.207 14.0458 197.207 13.6626C197.207 13.2795 197.267 12.9317 197.387 12.6176C197.508 12.3035 197.674 12.0348 197.887 11.8125C198.1 11.5902 198.352 11.4176 198.645 11.2946C198.938 11.1717 199.258 11.1094 199.603 11.1094C199.948 11.1094 200.276 11.1708 200.57 11.2946C200.863 11.4184 201.114 11.5902 201.323 11.8125C201.533 12.0348 201.696 12.3026 201.813 12.6176C201.93 12.9317 201.989 13.2803 201.989 13.6626ZM200.583 13.6626C200.583 13.2374 200.498 12.9031 200.329 12.6588C200.159 12.4155 199.917 12.2934 199.603 12.2934C199.289 12.2934 199.045 12.4155 198.872 12.6588C198.699 12.9022 198.613 13.2374 198.613 13.6626C198.613 14.0879 198.698 14.4256 198.872 14.6757C199.045 14.9249 199.288 15.0504 199.603 15.0504C199.918 15.0504 200.159 14.9258 200.329 14.6757C200.498 14.4256 200.583 14.0887 200.583 13.6626Z" fill="white"/>
</svg>
