<svg width="22" height="20" viewBox="0 0 22 20" fill="none" xmlns="http://www.w3.org/2000/svg">
<path d="M14.3583 11.5789L8.8 20L6.6 20L9.3786 11.5789L3.4826 11.5789L1.65 14.7368L-6.44168e-07 14.7368L1.1 10L-2.3006e-07 5.26316L1.65 5.26316L3.4837 8.42105L9.3797 8.42105L6.6 -6.73155e-07L8.8 -5.7699e-07L14.3583 8.42105L20.35 8.42105C20.7876 8.42105 21.2073 8.58741 21.5167 8.88352C21.8262 9.17963 22 9.58124 22 10C22 10.4188 21.8262 10.8204 21.5167 11.1165C21.2073 11.4126 20.7876 11.5789 20.35 11.5789L14.3583 11.5789Z" fill="white"/>
</svg>
