<svg width="17" height="23" viewBox="0 0 17 23" fill="none" xmlns="http://www.w3.org/2000/svg">
<path d="M10.3317 0H2.83333C2.08189 0 1.36122 0.302901 0.829864 0.842068C0.298511 1.38124 0 2.1125 0 2.875V20.125C0 20.8875 0.298511 21.6188 0.829864 22.1579C1.36122 22.6971 2.08189 23 2.83333 23H14.1667C14.9181 23 15.6388 22.6971 16.1701 22.1579C16.7015 21.6188 17 20.8875 17 20.125V6.76631C16.9999 6.38509 16.8506 6.01952 16.5849 5.75L11.3333 0.421188C11.0677 0.151585 10.7074 8.14163e-05 10.3317 0V0ZM10.625 5.03125V2.15625L14.875 6.46875H12.0417C11.6659 6.46875 11.3056 6.3173 11.0399 6.04772C10.7743 5.77813 10.625 5.4125 10.625 5.03125ZM9.20833 10.7812V16.2337L10.8318 14.5849C10.9648 14.4499 11.1452 14.3741 11.3333 14.3741C11.5214 14.3741 11.7018 14.4499 11.8348 14.5849C11.9678 14.7198 12.0426 14.9029 12.0426 15.0938C12.0426 15.2846 11.9678 15.4677 11.8348 15.6026L9.0015 18.4776C8.9357 18.5446 8.85754 18.5977 8.77148 18.6339C8.68542 18.6701 8.59317 18.6888 8.5 18.6888C8.40683 18.6888 8.31457 18.6701 8.22852 18.6339C8.14246 18.5977 8.0643 18.5446 7.9985 18.4776L5.16517 15.6026C5.03216 15.4677 4.95744 15.2846 4.95744 15.0938C4.95744 14.9029 5.03216 14.7198 5.16517 14.5849C5.29817 14.4499 5.47857 14.3741 5.66667 14.3741C5.85477 14.3741 6.03516 14.4499 6.16817 14.5849L7.79167 16.2337V10.7812C7.79167 10.5906 7.86629 10.4078 7.99913 10.273C8.13197 10.1382 8.31214 10.0625 8.5 10.0625C8.68786 10.0625 8.86803 10.1382 9.00087 10.273C9.13371 10.4078 9.20833 10.5906 9.20833 10.7812Z" fill="#167AC6"/>
</svg>
